<svg width="50" height="50" viewBox="0 0 50 50" fill="none" xmlns="http://www.w3.org/2000/svg">
<path fill-rule="evenodd" clip-rule="evenodd" d="M25 50C38.8071 50 50 38.8071 50 25C50 11.1929 38.8071 0 25 0C11.1929 0 0 11.1929 0 25C0 38.8071 11.1929 50 25 50ZM12.5 37.5L25 50L37.5 37.5H46.6506L43.3013 31.6987L50 25L43.3013 18.3013L46.6506 12.5L37.5 12.5L25 0L12.5 12.5L3.34936 12.5L6.69873 18.3013L0 25L6.69873 31.6987L3.34936 37.5H12.5ZM17.7831 37.5L25 50L32.2169 37.5H37.5L43.3013 31.6987L39.4338 25L43.3013 18.3013L37.5 12.5H32.2169L25 0L17.7831 12.5H12.5L6.69873 18.3013L10.5662 25L6.69873 31.6987L12.5 37.5H17.7831ZM39.4338 25L32.2169 12.5L17.7831 12.5L10.5662 25L17.7831 37.5H32.2169L39.4338 25Z" fill="white"/>
</svg>
